<svg xmlns="http://www.w3.org/2000/svg" width="200" height="60" viewBox="0 0 200 60" fill="none">
  <path d="M10 15L20 45H30L40 15H32L25 37L18 15H10Z" fill="#ffffff"/>
  <path d="M45 15V45H53V33H63V27H53V21H65V15H45Z" fill="#ffffff"/>
  <path d="M70 15V45H90V39H78V33H88V27H78V21H90V15H70Z" fill="#ffffff"/>
  <path d="M95 15V45H103V33H113V27H103V21H115V15H95Z" fill="#ffffff"/>
  <path d="M120 15V45H128V32L138 45H148L135 30L148 15H138L128 28V15H120Z" fill="#ffffff"/>
  <path d="M165 19C163 17 160 15 155 15C147 15 142 21 142 30C142 39 147 45 155 45C160 45 163 43 165 41V36C163 38 160 39 156 39C152 39 150 36 150 30C150 24 152 21 156 21C160 21 163 22 165 24V19Z" fill="#ffffff"/>
  <path d="M170 15V45H178V15H170Z" fill="#ffffff"/>
</svg> 